<?xml version="1.0" encoding="utf-8"?>
<!-- Generator: Adobe Illustrator 21.0.0, SVG Export Plug-In . SVG Version: 6.00 Build 0)  -->
<svg version="1.1" id="Layer_1" xmlns="http://www.w3.org/2000/svg" xmlns:xlink="http://www.w3.org/1999/xlink" x="0px" y="0px"
	 viewBox="0 0 512 512" style="enable-background:new 0 0 512 512;" xml:space="preserve">
<g>
	<path d="M5.1,75.5h317.4c2.8,0,5.1-2.3,5.1-5.1V34.6c0-2.8-2.3-5.1-5.1-5.1H5.1c-2.8,0-5.1,2.3-5.1,5.1v35.8
		C0,73.2,2.3,75.5,5.1,75.5z M5.1,346.9h317.4c2.8,0,5.1-2.3,5.1-5.1v-35.8c0-2.8-2.3-5.1-5.1-5.1H5.1c-2.8,0-5.1,2.3-5.1,5.1v35.8
		C0,344.6,2.3,346.9,5.1,346.9z M506.9,436.5H5.1c-2.8,0-5.1,2.3-5.1,5.1v35.8c0,2.8,2.3,5.1,5.1,5.1h501.8c2.8,0,5.1-2.3,5.1-5.1
		v-35.8C512,438.8,509.7,436.5,506.9,436.5z M506.9,165.1H5.1c-2.8,0-5.1,2.3-5.1,5.1v35.8c0,2.8,2.3,5.1,5.1,5.1h501.8
		c2.8,0,5.1-2.3,5.1-5.1v-35.8C512,167.4,509.7,165.1,506.9,165.1z"/>
</g>
</svg>
