<?xml version="1.0" encoding="utf-8"?>
<!-- Generator: Adobe Illustrator 24.1.1, SVG Export Plug-In . SVG Version: 6.00 Build 0)  -->
<svg version="1.1" id="Layer_1" xmlns="http://www.w3.org/2000/svg" xmlns:xlink="http://www.w3.org/1999/xlink" x="0px" y="0px"
	 viewBox="0 0 512 512" style="enable-background:new 0 0 512 512;" xml:space="preserve">
<g>
	<path d="M0,0v41.5h64.3v429H0V512h279.2c80.1,0,138.8-12,176.3-36c37.7-24,56.5-61.4,56.5-112.1c0-37.5-13.5-67.6-40.4-90.2
		c-26.9-22.6-65.6-36.4-116.1-41.2c41.7-4.6,73.1-15.8,94.2-33.6c21.3-17.8,32-42,32-72.4c0-42.3-15.4-73.9-46.1-95
		C404.9,10.5,358.9,0,297.7,0H0z M193.8,41.5h44.1c39.7,0,68.5,6.7,86.5,20.2c18.2,13.5,27.3,35.1,27.3,64.8
		c0,29.5-9.3,51.4-27.9,65.9c-18.6,14.2-47.2,21.3-85.8,21.3h-44.1V41.5z M193.8,254.8h48.1c42.4,0,74,9,94.9,27.1
		c20.9,18.1,31.3,45.4,31.3,82c0,36.4-10.3,63.2-31,80.6s-52.4,26-95.2,26h-48.1V254.8z"/>
</g>
</svg>
