<?xml version="1.0" encoding="utf-8"?>
<!-- Generator: Adobe Illustrator 24.1.1, SVG Export Plug-In . SVG Version: 6.00 Build 0)  -->
<svg version="1.1" id="Layer_1" xmlns="http://www.w3.org/2000/svg" xmlns:xlink="http://www.w3.org/1999/xlink" x="0px" y="0px"
	 viewBox="0 0 512 512" style="enable-background:new 0 0 512 512;" xml:space="preserve">
<style type="text/css">
	.st0{fill-rule:evenodd;clip-rule:evenodd;}
</style>
<g>
	<path class="st0" d="M0,96c0-35.4,28.6-64,64-64h384c35.4,0,64,28.6,64,64v320c0,35.4-28.6,64-64,64H64c-35.4,0-64-28.6-64-64V96z
		 M32,384l84.7-75.3c5.4-5.4,13.8-6.2,20.2-2l85.1,56.7l118.7-118.7c4.9-4.9,12.3-6.1,18.5-3L480,304v112c0,17.7-14.3,32-32,32H64
		c-17.7,0-32-14.3-32-32V384z M192,176c0,26.5-21.5,48-48,48s-48-21.5-48-48s21.5-48,48-48S192,149.5,192,176z"/>
</g>
</svg>
