<?xml version="1.0" encoding="utf-8"?>
<!-- Generator: Adobe Illustrator 24.1.1, SVG Export Plug-In . SVG Version: 6.00 Build 0)  -->
<svg version="1.1" id="Layer_1" xmlns="http://www.w3.org/2000/svg" xmlns:xlink="http://www.w3.org/1999/xlink" x="0px" y="0px"
	 viewBox="0 0 512 512" style="enable-background:new 0 0 512 512;" xml:space="preserve">
<g>
	<path d="M300.8,498.2l-4.2,13.8H85.7l5.1-13.8c14.1,0.5,28.2-1.4,41.7-5.5c9.7-3.3,18.2-9.5,24.4-17.6c11.7-20,20.4-41.6,25.7-64.2
		l88.9-308.5c6.3-18.8,10-38.3,11.2-58.1c0.2-5.9-1.5-11.8-4.8-16.7c-3.8-4.8-8.9-8.4-14.8-10.3c-12.8-3-26-4.2-39.2-3.5L228.6,0
		h197.7l-4.2,13.8c-12.2-0.8-24.5,1-35.9,5.5c-10.6,4.4-19.7,11.9-26,21.5c-9.9,19.7-17.6,40.5-22.8,62l-88,309.1
		c-6.1,17.6-10.4,35.8-12.8,54.2c-0.2,5.7,1.5,11.4,4.8,16c3.8,4.9,9.1,8.5,15.1,10.3C271,496,285.8,497.9,300.8,498.2z"/>
</g>
</svg>
