<?xml version="1.0" encoding="utf-8"?>
<!-- Generator: Adobe Illustrator 21.0.0, SVG Export Plug-In . SVG Version: 6.00 Build 0)  -->
<svg version="1.1" id="Layer_1" xmlns="http://www.w3.org/2000/svg" xmlns:xlink="http://www.w3.org/1999/xlink" x="0px" y="0px"
	 viewBox="0 0 512 512" style="enable-background:new 0 0 512 512;" xml:space="preserve">
<g>
	<path d="M339.7,39.4H4.9c-2.7,0-4.9,2.2-4.9,4.9v78.8c0,2.7,2.2,4.9,4.9,4.9h34.5c2.7,0,4.9-2.2,4.9-4.9V83.7h103.4v344.6H91.1
		c-2.7,0-4.9,2.2-4.9,4.9v34.5c0,2.7,2.2,4.9,4.9,4.9h162.5c2.7,0,4.9-2.2,4.9-4.9v-34.5c0-2.7-2.2-4.9-4.9-4.9h-56.6V83.7h103.4
		v39.4c0,2.7,2.2,4.9,4.9,4.9h34.5c2.7,0,4.9-2.2,4.9-4.9V44.3C344.6,41.6,342.4,39.4,339.7,39.4z M507.5,375.4h-39.9V136.6h39.9
		c3.7,0,5.8-4.3,3.5-7.2l-62-78.5c-1.5-1.9-4.2-2.3-6.2-0.8c-0.3,0.2-0.6,0.5-0.8,0.8l-62,78.5c-1.5,1.9-1.2,4.7,0.7,6.2
		c0.8,0.6,1.8,1,2.8,1h39.8v238.8h-39.9c-3.7,0-5.8,4.3-3.5,7.2l62,78.5c1.8,2.3,5.2,2.3,7,0l62-78.5c1.5-1.9,1.2-4.7-0.7-6.2
		C509.5,375.7,508.5,375.4,507.5,375.4z"/>
</g>
</svg>
