<?xml version="1.0" encoding="utf-8"?>
<!-- Generator: Adobe Illustrator 24.1.1, SVG Export Plug-In . SVG Version: 6.00 Build 0)  -->
<svg version="1.1" id="Layer_1" xmlns="http://www.w3.org/2000/svg" xmlns:xlink="http://www.w3.org/1999/xlink" x="0px" y="0px"
	 viewBox="0 0 512 512" style="enable-background:new 0 0 512 512;" xml:space="preserve">
<style type="text/css">
	.st0{fill:#231F20;}
</style>
<g>
	<circle class="st0" cx="28.4" cy="113.8" r="28.4"/>
	<circle class="st0" cx="28.4" cy="256" r="28.4"/>
	<circle class="st0" cx="28.4" cy="398.2" r="28.4"/>
	<path class="st0" d="M140.5,227.6h344.8c14.8,0,26.7,12,26.7,26.7v3.4c0,14.8-12,26.7-26.7,26.7H140.5c-14.8,0-26.7-12-26.7-26.7
		v-3.4C113.8,239.5,125.8,227.6,140.5,227.6z"/>
	<path class="st0" d="M140.5,369.8h344.8c14.8,0,26.7,12,26.7,26.7v3.4c0,14.8-12,26.7-26.7,26.7H140.5c-14.8,0-26.7-12-26.7-26.7
		v-3.4C113.8,381.8,125.8,369.8,140.5,369.8z"/>
	<path class="st0" d="M140.5,85.3h344.8c14.8,0,26.7,12,26.7,26.7v3.4c0,14.8-12,26.7-26.7,26.7H140.5c-14.8,0-26.7-12-26.7-26.7
		v-3.4C113.8,97.3,125.8,85.3,140.5,85.3z"/>
</g>
</svg>
