<?xml version="1.0" encoding="utf-8"?>
<!-- Generator: Adobe Illustrator 24.1.1, SVG Export Plug-In . SVG Version: 6.00 Build 0)  -->
<svg version="1.1" id="Layer_1" xmlns="http://www.w3.org/2000/svg" xmlns:xlink="http://www.w3.org/1999/xlink" x="0px" y="0px"
	 viewBox="0 0 512 512" style="enable-background:new 0 0 512 512;" xml:space="preserve">
<g>
	<polygon points="35.7,85.6 35.7,133.6 49.8,133.6 49.8,67.5 37.5,67.5 16.6,88.4 24.7,96.8 	"/>
	<path d="M25.8,233.8c5.4,0,10.7,2.8,10.7,8.6c0,8.1-7.9,14.9-35,34.9v11.1h49.8v-12.4h-27c17.2-12.5,26.5-22.3,26.5-33.6
		c0-13.2-11.1-21.1-25.3-21.1c-9.2,0-19,3.4-25.5,10.8l8,9.3C12.5,236.8,18.2,233.8,25.8,233.8z"/>
	<path d="M36.8,409.2c7.3-1.3,14.5-6.7,14.5-15.1c0-11-9.5-17.9-25-17.9c-11.6,0-19.9,4.5-25.3,10.5l7,8.8
		c4.7-4.5,10.4-6.8,16.9-6.8c6.8,0,12.3,2.6,12.3,7.8c0,4.9-5,7-12.3,7c-2.5,0-7,0-8.2-0.1v12.7c1-0.1,5.4-0.2,8.2-0.2
		c9.2,0,13.3,2.4,13.3,7.6c0,5-4.5,8.4-12.5,8.4c-6.4,0-13.7-2.8-18.1-7.5l-7.4,9.4c4.9,5.9,14,10.6,26.1,10.6
		c15.9,0,26.1-8,26.1-19.4C52.2,415.1,43.5,409.9,36.8,409.2z"/>
	<path d="M490.9,69.5H104c-11.7,0-21.1,9.4-21.1,21.1v19.5c0,11.6,9.4,21.1,21.1,21.1h386.9c11.7,0,21.1-9.4,21.1-21.1V90.6
		C512,79,502.6,69.5,490.9,69.5z"/>
	<path d="M490.9,223.7H104c-11.7,0-21.1,9.4-21.1,21.1v19.5c0,11.6,9.4,21.1,21.1,21.1h386.9c11.7,0,21.1-9.4,21.1-21.1v-19.5
		C512,233.1,502.6,223.7,490.9,223.7z"/>
	<path d="M490.9,377.8H104c-11.7,0-21.1,9.4-21.1,21.1v19.5c0,11.6,9.4,21.1,21.1,21.1h386.9c11.7,0,21.1-9.4,21.1-21.1v-19.5
		C512,387.3,502.6,377.8,490.9,377.8z"/>
</g>
</svg>
