<?xml version="1.0" encoding="utf-8"?>
<!-- Generator: Adobe Illustrator 24.1.1, SVG Export Plug-In . SVG Version: 6.00 Build 0)  -->
<svg version="1.1" id="Layer_1" xmlns="http://www.w3.org/2000/svg" xmlns:xlink="http://www.w3.org/1999/xlink" x="0px" y="0px"
	 viewBox="0 0 512 512" style="enable-background:new 0 0 512 512;" xml:space="preserve">
<style type="text/css">
	.st0{fill-rule:evenodd;clip-rule:evenodd;}
</style>
<g>
	<path class="st0" d="M146.3,395.3c0-10.1,8.2-18.3,18.3-18.3h329.1c10.1,0,18.3,8.2,18.3,18.3c0,10.1-8.2,18.3-18.3,18.3H164.6
		C154.5,413.6,146.3,405.4,146.3,395.3z M146.3,249c0-10.1,8.2-18.3,18.3-18.3h329.1c10.1,0,18.3,8.2,18.3,18.3
		c0,10.1-8.2,18.3-18.3,18.3H164.6C154.5,267.3,146.3,259.1,146.3,249z M146.3,102.7c0-10.1,8.2-18.3,18.3-18.3h329.1
		c10.1,0,18.3,8.2,18.3,18.3c0,10.1-8.2,18.3-18.3,18.3H164.6C154.5,121,146.3,112.8,146.3,102.7z"/>
	<path d="M26.1,408.6v-17.3h10.5c7.9,0,13.3-5,13.3-11.6c0-6.8-5.8-11.3-13.2-11.3c-8.1,0-13.4,5.6-13.6,11.3H1.4
		c0.6-17.1,13.6-28.8,36-28.8c21.5-0.1,34.9,10.6,35,25.7c0.1,10.7-7.5,19.9-18,21.7v1.2c12,0.9,21.1,11.1,20.8,23.1
		c0.1,19.5-18.4,29.2-38.5,29.2c-24,0-36.6-13.5-36.9-29h21.3c0.3,6.5,6.8,11.2,15.4,11.3c9.3,0,15.5-5.3,15.4-12.8
		c-0.1-7.1-5.7-12.7-15.1-12.7H26.1L26.1,408.6z M25.9,236.8H3.8v-1.3c0-14.9,10.8-30.9,35-30.9c21.3,0,35.1,11.9,35.1,27.7
		c0,14.2-9.4,22.5-17.4,31l-19.6,20.9v1.1h38.5v18.5H5.2v-14.5l35-36.2c5-5.2,10.7-11.1,10.7-18.6c0-6.6-5.4-11.7-12.5-11.7
		c-6.6-0.2-12.3,5-12.5,11.6v0.8V236.8z M57.2,157.6H34V81.7h-1.1L11,97V76.3l23-16.2h23.2V157.6z"/>
</g>
</svg>
