<?xml version="1.0" encoding="utf-8"?>
<!-- Generator: Adobe Illustrator 19.0.0, SVG Export Plug-In . SVG Version: 6.00 Build 0)  -->
<svg version="1.1" id="Layer_1" xmlns="http://www.w3.org/2000/svg" xmlns:xlink="http://www.w3.org/1999/xlink" x="0px" y="0px"
	 viewBox="0 0 512 512" style="enable-background:new 0 0 512 512;" xml:space="preserve">
<g id="XMLID_2_">
	<path id="XMLID_9_" d="M255.5,0.5C114.3,0.5,0,114.8,0,256s114.3,255.5,255.5,255.5c23.2,0,42.7-18.6,42.7-42.7
		c0-11.2-3.7-21.4-11.2-28.8c-6.5-7.4-10.2-17.7-10.2-27.9c0-23.2,18.6-42.7,42.7-42.7h50.2c78.1,0,142.2-63.2,142.2-142.2
		C511.1,101.7,396.8,0.5,255.5,0.5z M99.4,256c-23.2,0-42.7-18.6-42.7-42.7c0-23.2,18.6-42.7,42.7-42.7s42.7,18.6,42.7,42.7
		S122.7,256,99.4,256z M184.9,142.6c-23.2,0-42.7-18.6-42.7-42.7s18.6-42.7,42.7-42.7s42.7,18.6,42.7,42.7S208.1,142.6,184.9,142.6z
		 M326.2,142.6c-23.2,0-42.7-18.6-42.7-42.7s18.6-42.7,42.7-42.7s42.7,18.6,42.7,42.7S350.3,142.6,326.2,142.6z M411.6,256
		c-23.2,0-42.7-18.6-42.7-42.7c0-23.2,18.6-42.7,42.7-42.7s42.7,18.6,42.7,42.7S434.9,256,411.6,256z"/>
</g>
</svg>
