<?xml version="1.0" encoding="utf-8"?>
<!-- Generator: Adobe Illustrator 21.0.0, SVG Export Plug-In . SVG Version: 6.00 Build 0)  -->
<svg version="1.1" id="Layer_1" xmlns="http://www.w3.org/2000/svg" xmlns:xlink="http://www.w3.org/1999/xlink" x="0px" y="0px"
	 viewBox="0 0 512 512" style="enable-background:new 0 0 512 512;" xml:space="preserve">
<g>
	<path d="M507.4,234.3H289.1c-5.7-1.1-11.7-2.3-18.1-3.4c-9.1-1.7-12.7-2.3-17.6-3.3c-29.3-5.7-47-11.4-61-19.5
		c-20.1-11.7-29.8-27.6-29.8-48.6c0-21.1,8.7-38.7,25.1-50.9c16.2-12,39.3-18.3,66.7-18.3c31.3,0,55.5,8.2,71.9,24.5
		c8.3,8.2,14.5,18.3,18.2,30.1c0.7,2.3,1.6,5.7,2.5,10.2c0.5,2.7,3,4.7,5.7,4.7h41.6c3.2,0,5.8-2.6,5.8-5.8v-0.6
		c-0.4-3.9-0.7-6.9-1.1-9.1c-4.2-24.9-16-46.7-34.1-63c-25.4-23.1-62.7-35.3-107.8-35.3c-41.3,0-78.5,10.3-104.7,29.1
		c-14.6,10.5-25.9,23.5-33.5,38.7c-7.7,15.5-11.6,33.4-11.6,53.1c0,16.9,3.3,31.1,9.9,43.7c4.7,9,11.2,16.9,19.5,24H4.6
		c-2.5,0-4.6,2.1-4.6,4.6v34.3c0,2.5,2.1,4.6,4.6,4.6h247.5c1.2,0.2,2.2,0.5,3.4,0.7c17.7,3.5,28.3,5.9,38.1,8.7
		c13.1,3.7,23.2,7.6,31.5,12.3c20.5,11.5,30.5,28.1,30.5,50.9c0,20.2-8.9,38.2-24.9,50.7c-17.4,13.7-43.2,20.8-74.6,20.8
		c-25,0-46.1-4.9-63-14.3c-16.6-9.3-28.1-22.7-34.1-39.7c-0.5-1.3-1-3-1.5-5.1c-0.7-2.5-3-4.3-5.5-4.3h-45.5c-3.2,0-5.8,2.6-5.8,5.8
		v0.6c0.1,1.3,0.2,2.4,0.3,3.3c3.7,27.9,17.3,50.7,40.4,67.9c26.9,19.9,64.8,30.4,109.6,30.4c48.1,0,88.5-11.3,116.7-32.7
		c14.3-10.8,25.3-24.1,32.6-39.4c7.4-15.5,11.3-33.1,11.3-52.3c0-18.2-3.3-33.4-10.2-46.5c-3.3-6.4-7.5-12.3-12.5-17.6h118.6
		c2.5,0,4.6-2.1,4.6-4.6v-34.3C512,236.3,509.9,234.3,507.4,234.3z"/>
</g>
</svg>
