<?xml version="1.0" encoding="utf-8"?>
<!-- Generator: Adobe Illustrator 24.1.1, SVG Export Plug-In . SVG Version: 6.00 Build 0)  -->
<svg version="1.1" id="Layer_1" xmlns="http://www.w3.org/2000/svg" xmlns:xlink="http://www.w3.org/1999/xlink" x="0px" y="0px"
	 viewBox="0 0 512 512" style="enable-background:new 0 0 512 512;" xml:space="preserve">
<g>
	<path d="M479.2,463.3l-0.8,0.1v-0.1H32v0.1c-13,0.5-23.5,11.1-23.5,24.3c0,13.2,10.5,23.8,23.5,24.3v0.1h446.3v-0.1l0.8,0.1
		c13.4,0,24.3-10.9,24.3-24.3C503.5,474.2,492.6,463.3,479.2,463.3z"/>
	<path d="M256,435.5c128.5,0,191.4-73.5,191.4-182.8v-229c0-13.1-10.6-23.8-23.8-23.8h-31.4c-13.1,0-23.8,10.6-23.8,23.8l0.1,0.9
		v226.1c0,70.2-39.1,115.9-112.6,115.9S143.4,321,143.4,250.8V24.6l0.1-0.9c0-13.1-10.6-23.8-23.8-23.8H88.4
		C75.3,0,64.6,10.6,64.6,23.8v229C64.6,362,128.2,435.5,256,435.5z"/>
</g>
</svg>
