<?xml version="1.0" encoding="utf-8"?>
<!-- Generator: Adobe Illustrator 19.0.0, SVG Export Plug-In . SVG Version: 6.00 Build 0)  -->
<svg version="1.1" id="Layer_1" xmlns="http://www.w3.org/2000/svg" xmlns:xlink="http://www.w3.org/1999/xlink" x="0px" y="0px"
	 viewBox="0 0 512 512" style="enable-background:new 0 0 512 512;" xml:space="preserve">
<g id="XMLID_2_">
	<path id="XMLID_4_" d="M416,256c8.5,0,16.2,3.4,23,9.4s9.4,13.7,9.4,23v192c0,8.5-3.4,16.2-9.4,23c-6,6.8-14.5,8.5-23,8.5H96
		c-8.5,0-16.2-3.4-23-9.4s-9.4-13.7-9.4-23V288.4c0-8.5,3.4-16.2,9.4-23c6-6.8,13.7-9.4,23-9.4h11.1V149.3
		c0-41,14.5-75.9,43.5-105.8c29-29,64-43.5,105-43.5s75.9,14.5,105.8,43.5s43.5,64,43.5,105.8c0,6-1.7,11.1-6,15.4s-9.4,6-15.4,6
		h-21.3c-6,0-11.1-1.7-15.4-6c-4.3-4.3-6-9.4-6-15.4c0-23.9-8.5-43.5-24.7-60.6S279.5,64,255.6,64s-43.5,8.5-60.6,24.7
		s-24.7,36.7-24.7,60.6V256H416z"/>
</g>
</svg>
